# xmcd
#
# Track frame offsets:
#	150
#	918
#	17191
#	34299
#	50583
#	63153
#	76728
#	89558
#	102834
#	117132
#	132500
#	146770
#	162819
#	176406
#	193495
#	207633
#	225200
#	240293
#	255235
#	272624
#
# Disc length: 3825 seconds
#
# Revision: 1
# Processed by: cddbd v1.5.2PL0 Copyright (c) Steve Scherf et al.
# Submitted via: audiograbber 1.83.01
#
DISCID=040eef14
DTITLE=Various Artist - BALLERMANN SILVESTERHITS2012CD 2
DYEAR=1900
DGENRE=
TTITLE0=Kurz vor zwölf - Silvester Countdown
TTITLE1=Buddy - Du bist so boah (Discomeister Remix)
TTITLE2=Axel Fischer - 1000 Herzen (sind auf Erden)
TTITLE3=Discomeister - Adios Mexico (Radio Edit)
TTITLE4=Mike Candys - Sunshine (Fly So High) (2012 Radio Mix)
TTITLE5=Brisby and Jingles - Donnersong (Thunderbuddies) (Clean Radio)
TTITLE6=Buranovskie Babushki - Party For Everybody (Original Radio Mix)
TTITLE7=Evelyn - Dirty Nights (Radio Edit)
TTITLE8=Markus Falke - Schluss mit lustig (Single Version)
TTITLE9=Anna Mariea Zimmermann - Freundschaftsring
TTITLE10=Libero 5 - Im Himmel bin ich Single
TTITLE11=Lorenz Büffel and Ikke Hüftgold - Ich will Sex mit Dir Carmen
TTITLE12=Peter Wackel - Alt wie ein Baum
TTITLE13=Howie Nuvo - Kommst Du mit nach Brazil (Remix 2012)
TTITLE14=Fino - Lügen haben lange Beine
TTITLE15=BB Jürgen - Wo kenn ich Dich her
TTITLE16=Rick Arena - Party Feeling
TTITLE17=Leo Colonia - 75 D (Party-Remix)
TTITLE18=Partyqueen Betty - Hoch durch die Nacht (Radio Mix)
TTITLE19=Micha W. - Top-Model
EXTD=
EXTT0=
EXTT1=
EXTT2=
EXTT3=
EXTT4=
EXTT5=
EXTT6=
EXTT7=
EXTT8=
EXTT9=
EXTT10=
EXTT11=
EXTT12=
EXTT13=
EXTT14=
EXTT15=
EXTT16=
EXTT17=
EXTT18=
EXTT19=
PLAYORDER=
